<svg width="30" height="36" viewBox="0 0 30 36" fill="none" xmlns="http://www.w3.org/2000/svg">
<path d="M28.7643 9.02411L20.1178 0.377679C19.8768 0.136607 19.5513 0 19.2098 0H2.14195C1.43079 0 0.856232 0.574554 0.856232 1.28571V34.7143C0.856232 35.4254 1.43079 36 2.14195 36H27.8562C28.5674 36 29.1419 35.4254 29.1419 34.7143V9.93616C29.1419 9.59464 29.0053 9.26518 28.7643 9.02411ZM26.1768 10.5268H18.6152V2.96518L26.1768 10.5268ZM26.2491 33.1071H3.74909V2.89286H15.883V11.5714C15.883 12.019 16.0608 12.4482 16.3773 12.7647C16.6937 13.0811 17.123 13.2589 17.5705 13.2589H26.2491V33.1071ZM14.6777 22.2589H7.2848C7.10802 22.2589 6.96338 22.4036 6.96338 22.5804V24.5089C6.96338 24.6857 7.10802 24.8304 7.2848 24.8304H14.6777C14.8544 24.8304 14.9991 24.6857 14.9991 24.5089V22.5804C14.9991 22.4036 14.8544 22.2589 14.6777 22.2589ZM6.96338 17.1161V19.0446C6.96338 19.2214 7.10802 19.3661 7.2848 19.3661H22.7134C22.8902 19.3661 23.0348 19.2214 23.0348 19.0446V17.1161C23.0348 16.9393 22.8902 16.7946 22.7134 16.7946H7.2848C7.10802 16.7946 6.96338 16.9393 6.96338 17.1161Z" fill="black" fill-opacity="0.85"/>
</svg>
