<svg width="92" height="77" viewBox="0 0 92 77" fill="none" xmlns="http://www.w3.org/2000/svg">
<rect x="39.5" y="0.5" width="4" height="50" rx="2" fill="#343740" stroke="#343740"/>
<rect x="12.5" y="18.5" width="4" height="32" rx="2" fill="#343740" stroke="#343740"/>
<rect x="30.5" y="14.5" width="4" height="36" rx="2" fill="#343740" stroke="#343740"/>
<rect x="48.5" y="14.5" width="4" height="36" rx="2" fill="#343740" stroke="#343740"/>
<rect x="66.5" y="14.5" width="4" height="36" rx="2" fill="#343740" stroke="#343740"/>
<rect x="21.5" y="14.5" width="4" height="36" rx="2" fill="#343740" stroke="#343740"/>
<rect x="3.5" y="24.5" width="4" height="26" rx="2" fill="#343740" stroke="#343740"/>
<rect x="75.5" y="24.5" width="4" height="26" rx="2" fill="#343740" stroke="#343740"/>
<rect x="84.5" y="34.5" width="4" height="16" rx="2" fill="#343740" stroke="#343740"/>
<rect x="57.5" y="34.5" width="4" height="16" rx="2" fill="#343740" stroke="#343740"/>
<path d="M7.77832 68.6426C7.77832 68.1445 7.60254 67.7637 7.25098 67.5C6.89941 67.2305 6.2666 66.9492 5.35254 66.6562C4.43848 66.3574 3.71484 66.0645 3.18164 65.7773C1.72852 64.9922 1.00195 63.9346 1.00195 62.6045C1.00195 61.9131 1.19531 61.2979 1.58203 60.7588C1.97461 60.2139 2.53418 59.7891 3.26074 59.4844C3.99316 59.1797 4.81348 59.0273 5.72168 59.0273C6.63574 59.0273 7.4502 59.1943 8.16504 59.5283C8.87988 59.8564 9.43359 60.3223 9.82617 60.9258C10.2246 61.5293 10.4238 62.2148 10.4238 62.9824H7.78711C7.78711 62.3965 7.60254 61.9424 7.2334 61.6201C6.86426 61.292 6.3457 61.1279 5.67773 61.1279C5.0332 61.1279 4.53223 61.2656 4.1748 61.541C3.81738 61.8105 3.63867 62.168 3.63867 62.6133C3.63867 63.0293 3.84668 63.3779 4.2627 63.6592C4.68457 63.9404 5.30273 64.2041 6.11719 64.4502C7.61719 64.9014 8.70996 65.4609 9.39551 66.1289C10.0811 66.7969 10.4238 67.6289 10.4238 68.625C10.4238 69.7324 10.0049 70.6025 9.16699 71.2354C8.3291 71.8623 7.20117 72.1758 5.7832 72.1758C4.79883 72.1758 3.90234 71.9971 3.09375 71.6396C2.28516 71.2764 1.66699 70.7812 1.23926 70.1543C0.817383 69.5273 0.606445 68.8008 0.606445 67.9746H3.25195C3.25195 69.3867 4.0957 70.0928 5.7832 70.0928C6.41016 70.0928 6.89941 69.9668 7.25098 69.7148C7.60254 69.457 7.77832 69.0996 7.77832 68.6426ZM17.5605 72C17.4434 71.7715 17.3584 71.4873 17.3057 71.1475C16.6904 71.833 15.8906 72.1758 14.9062 72.1758C13.9746 72.1758 13.2012 71.9062 12.5859 71.3672C11.9766 70.8281 11.6719 70.1484 11.6719 69.3281C11.6719 68.3203 12.0439 67.5469 12.7881 67.0078C13.5381 66.4688 14.6191 66.1963 16.0312 66.1904H17.2002V65.6455C17.2002 65.2061 17.0859 64.8545 16.8574 64.5908C16.6348 64.3271 16.2803 64.1953 15.7939 64.1953C15.3662 64.1953 15.0293 64.2979 14.7832 64.5029C14.543 64.708 14.4229 64.9893 14.4229 65.3467H11.8828C11.8828 64.7959 12.0527 64.2861 12.3926 63.8174C12.7324 63.3486 13.2129 62.9824 13.834 62.7188C14.4551 62.4492 15.1523 62.3145 15.9258 62.3145C17.0977 62.3145 18.0264 62.6104 18.7119 63.2021C19.4033 63.7881 19.749 64.6143 19.749 65.6807V69.8027C19.7549 70.7051 19.8809 71.3877 20.127 71.8506V72H17.5605ZM15.46 70.2334C15.835 70.2334 16.1807 70.1514 16.4971 69.9873C16.8135 69.8174 17.0479 69.5918 17.2002 69.3105V67.6758H16.251C14.9795 67.6758 14.3027 68.1152 14.2207 68.9941L14.2119 69.1436C14.2119 69.46 14.3232 69.7207 14.5459 69.9258C14.7686 70.1309 15.0732 70.2334 15.46 70.2334ZM24.3809 72H21.832V58.5H24.3809V72ZM30.8584 72.1758C29.4639 72.1758 28.3271 71.748 27.4482 70.8926C26.5752 70.0371 26.1387 68.8975 26.1387 67.4736V67.2275C26.1387 66.2725 26.3232 65.4199 26.6924 64.6699C27.0615 63.9141 27.583 63.334 28.2568 62.9297C28.9365 62.5195 29.71 62.3145 30.5771 62.3145C31.8779 62.3145 32.9004 62.7246 33.6445 63.5449C34.3945 64.3652 34.7695 65.5283 34.7695 67.0342V68.0713H28.7139C28.7959 68.6924 29.042 69.1904 29.4521 69.5654C29.8682 69.9404 30.3926 70.1279 31.0254 70.1279C32.0039 70.1279 32.7686 69.7734 33.3193 69.0645L34.5674 70.4619C34.1865 71.001 33.6709 71.4229 33.0205 71.7275C32.3701 72.0264 31.6494 72.1758 30.8584 72.1758ZM30.5684 64.3711C30.0645 64.3711 29.6543 64.541 29.3379 64.8809C29.0273 65.2207 28.8281 65.707 28.7402 66.3398H32.2734V66.1377C32.2617 65.5752 32.1094 65.1416 31.8164 64.8369C31.5234 64.5264 31.1074 64.3711 30.5684 64.3711ZM46.4326 67.7373C46.333 69.1143 45.8232 70.1982 44.9033 70.9893C43.9893 71.7803 42.7822 72.1758 41.2822 72.1758C39.6416 72.1758 38.3496 71.625 37.4062 70.5234C36.4688 69.416 36 67.8984 36 65.9707V65.1885C36 63.958 36.2168 62.874 36.6504 61.9365C37.084 60.999 37.7021 60.2812 38.5049 59.7832C39.3135 59.2793 40.251 59.0273 41.3174 59.0273C42.7939 59.0273 43.9834 59.4229 44.8857 60.2139C45.7881 61.0049 46.3096 62.1152 46.4502 63.5449H43.8135C43.749 62.7188 43.5176 62.1211 43.1191 61.752C42.7266 61.377 42.126 61.1895 41.3174 61.1895C40.4385 61.1895 39.7793 61.5059 39.3398 62.1387C38.9062 62.7656 38.6836 63.7412 38.6719 65.0654V66.0322C38.6719 67.415 38.8799 68.4258 39.2959 69.0645C39.7178 69.7031 40.3799 70.0225 41.2822 70.0225C42.0967 70.0225 42.7031 69.8379 43.1016 69.4688C43.5059 69.0938 43.7373 68.5166 43.7959 67.7373H46.4326ZM47.6016 67.1572C47.6016 66.2139 47.7832 65.373 48.1465 64.6348C48.5098 63.8965 49.0312 63.3252 49.7109 62.9209C50.3965 62.5166 51.1904 62.3145 52.0928 62.3145C53.376 62.3145 54.4219 62.707 55.2305 63.4922C56.0449 64.2773 56.499 65.3438 56.5928 66.6914L56.6104 67.3418C56.6104 68.8008 56.2031 69.9727 55.3887 70.8574C54.5742 71.7363 53.4814 72.1758 52.1104 72.1758C50.7393 72.1758 49.6436 71.7363 48.8232 70.8574C48.0088 69.9785 47.6016 68.7832 47.6016 67.2715V67.1572ZM50.1416 67.3418C50.1416 68.2441 50.3115 68.9355 50.6514 69.416C50.9912 69.8906 51.4775 70.1279 52.1104 70.1279C52.7256 70.1279 53.2061 69.8936 53.5518 69.4248C53.8975 68.9502 54.0703 68.1943 54.0703 67.1572C54.0703 66.2725 53.8975 65.5869 53.5518 65.1006C53.2061 64.6143 52.7197 64.3711 52.0928 64.3711C51.4717 64.3711 50.9912 64.6143 50.6514 65.1006C50.3115 65.5811 50.1416 66.3281 50.1416 67.3418ZM60.8555 72H58.3066V58.5H60.8555V72ZM65.6367 72H63.0879V58.5H65.6367V72ZM72.1143 72.1758C70.7197 72.1758 69.583 71.748 68.7041 70.8926C67.8311 70.0371 67.3945 68.8975 67.3945 67.4736V67.2275C67.3945 66.2725 67.5791 65.4199 67.9482 64.6699C68.3174 63.9141 68.8389 63.334 69.5127 62.9297C70.1924 62.5195 70.9658 62.3145 71.833 62.3145C73.1338 62.3145 74.1562 62.7246 74.9004 63.5449C75.6504 64.3652 76.0254 65.5283 76.0254 67.0342V68.0713H69.9697C70.0518 68.6924 70.2979 69.1904 70.708 69.5654C71.124 69.9404 71.6484 70.1279 72.2812 70.1279C73.2598 70.1279 74.0244 69.7734 74.5752 69.0645L75.8232 70.4619C75.4424 71.001 74.9268 71.4229 74.2764 71.7275C73.626 72.0264 72.9053 72.1758 72.1143 72.1758ZM71.8242 64.3711C71.3203 64.3711 70.9102 64.541 70.5938 64.8809C70.2832 65.2207 70.084 65.707 69.9961 66.3398H73.5293V66.1377C73.5176 65.5752 73.3652 65.1416 73.0723 64.8369C72.7793 64.5264 72.3633 64.3711 71.8242 64.3711ZM81.4307 70.1279C81.8994 70.1279 82.2803 69.999 82.5732 69.7412C82.8662 69.4834 83.0186 69.1406 83.0303 68.7129H85.4121C85.4062 69.3574 85.2305 69.9492 84.8848 70.4883C84.5391 71.0215 84.0645 71.4375 83.4609 71.7363C82.8633 72.0293 82.2012 72.1758 81.4746 72.1758C80.1152 72.1758 79.043 71.7451 78.2578 70.8838C77.4727 70.0166 77.0801 68.8213 77.0801 67.2979V67.1309C77.0801 65.666 77.4697 64.4971 78.249 63.624C79.0283 62.751 80.0977 62.3145 81.457 62.3145C82.6465 62.3145 83.5986 62.6543 84.3135 63.334C85.0342 64.0078 85.4004 64.9072 85.4121 66.0322H83.0303C83.0186 65.54 82.8662 65.1416 82.5732 64.8369C82.2803 64.5264 81.8936 64.3711 81.4131 64.3711C80.8213 64.3711 80.373 64.5879 80.0684 65.0215C79.7695 65.4492 79.6201 66.1465 79.6201 67.1133V67.377C79.6201 68.3555 79.7695 69.0586 80.0684 69.4863C80.3672 69.9141 80.8213 70.1279 81.4307 70.1279ZM89.9033 60.1523V62.4902H91.5293V64.3535H89.9033V69.0996C89.9033 69.4512 89.9707 69.7031 90.1055 69.8555C90.2402 70.0078 90.498 70.084 90.8789 70.084C91.1602 70.084 91.4092 70.0635 91.626 70.0225V71.9473C91.1279 72.0996 90.6152 72.1758 90.0879 72.1758C88.3066 72.1758 87.3984 71.2764 87.3633 69.4775V64.3535H85.9746V62.4902H87.3633V60.1523H89.9033Z" fill="black"/>
</svg>
