<svg width="111" height="25" viewBox="0 0 111 25" fill="none" xmlns="http://www.w3.org/2000/svg">
<rect x="14.6079" y="0.490196" width="0.980392" height="19.0196" rx="0.490196" fill="#343740" stroke="#343740" stroke-width="0.980392"/>
<rect x="4.01962" y="7.54903" width="0.980392" height="11.9608" rx="0.490196" fill="#343740" stroke="#343740" stroke-width="0.980392"/>
<rect x="11.0785" y="5.9804" width="0.980392" height="13.5294" rx="0.490196" fill="#343740" stroke="#343740" stroke-width="0.980392"/>
<rect x="18.1373" y="5.9804" width="0.980392" height="13.5294" rx="0.490196" fill="#343740" stroke="#343740" stroke-width="0.980392"/>
<rect x="25.1961" y="5.9804" width="0.980392" height="13.5294" rx="0.490196" fill="#343740" stroke="#343740" stroke-width="0.980392"/>
<rect x="7.54903" y="5.9804" width="0.980392" height="13.5294" rx="0.490196" fill="#343740" stroke="#343740" stroke-width="0.980392"/>
<rect x="0.490196" y="9.90197" width="0.980392" height="9.60784" rx="0.490196" fill="#343740" stroke="#343740" stroke-width="0.980392"/>
<rect x="28.7255" y="9.90197" width="0.980392" height="9.60784" rx="0.490196" fill="#343740" stroke="#343740" stroke-width="0.980392"/>
<rect x="32.2548" y="13.8235" width="0.980392" height="5.68627" rx="0.490196" fill="#343740" stroke="#343740" stroke-width="0.980392"/>
<rect x="21.6667" y="13.8235" width="0.980392" height="5.68627" rx="0.490196" fill="#343740" stroke="#343740" stroke-width="0.980392"/>
<path d="M45.0498 16.3887C45.0498 16.0013 44.9131 15.7051 44.6396 15.5C44.3662 15.2904 43.874 15.0716 43.1631 14.8438C42.4521 14.6113 41.8893 14.3835 41.4746 14.1602C40.3444 13.5495 39.7793 12.7269 39.7793 11.6924C39.7793 11.1546 39.9297 10.6761 40.2305 10.2568C40.5358 9.83301 40.971 9.5026 41.5361 9.26562C42.1058 9.02865 42.7438 8.91016 43.4502 8.91016C44.1611 8.91016 44.7946 9.04004 45.3506 9.2998C45.9066 9.55501 46.3372 9.91732 46.6426 10.3867C46.9525 10.8561 47.1074 11.3893 47.1074 11.9863H45.0566C45.0566 11.5306 44.9131 11.1774 44.626 10.9268C44.3389 10.6715 43.9355 10.5439 43.416 10.5439C42.9147 10.5439 42.5251 10.651 42.2471 10.8652C41.9691 11.0749 41.8301 11.3529 41.8301 11.6992C41.8301 12.0228 41.9919 12.2939 42.3154 12.5127C42.6436 12.7314 43.1243 12.9365 43.7578 13.1279C44.9245 13.4788 45.7744 13.9141 46.3076 14.4336C46.8408 14.9531 47.1074 15.6003 47.1074 16.375C47.1074 17.2363 46.7816 17.9131 46.1299 18.4053C45.4782 18.8929 44.6009 19.1367 43.498 19.1367C42.7324 19.1367 42.0352 18.9977 41.4062 18.7197C40.7773 18.4372 40.2965 18.0521 39.9639 17.5645C39.6357 17.0768 39.4717 16.5117 39.4717 15.8691H41.5293C41.5293 16.9674 42.1855 17.5166 43.498 17.5166C43.9857 17.5166 44.3662 17.4186 44.6396 17.2227C44.9131 17.0221 45.0498 16.7441 45.0498 16.3887ZM52.6582 19C52.5671 18.8223 52.501 18.6012 52.46 18.3369C51.9814 18.8701 51.3594 19.1367 50.5938 19.1367C49.8691 19.1367 49.2676 18.9271 48.7891 18.5078C48.3151 18.0885 48.0781 17.5599 48.0781 16.9219C48.0781 16.138 48.3675 15.5365 48.9463 15.1172C49.5296 14.6979 50.3704 14.486 51.4688 14.4814H52.3779V14.0576C52.3779 13.7158 52.2891 13.4424 52.1113 13.2373C51.9382 13.0322 51.6624 12.9297 51.2842 12.9297C50.9515 12.9297 50.6895 13.0094 50.498 13.1689C50.3112 13.3285 50.2178 13.5472 50.2178 13.8252H48.2422C48.2422 13.3968 48.3743 13.0003 48.6387 12.6357C48.903 12.2712 49.2767 11.9863 49.7598 11.7812C50.2428 11.5716 50.7852 11.4668 51.3867 11.4668C52.2982 11.4668 53.0205 11.6969 53.5537 12.1572C54.0915 12.613 54.3604 13.2555 54.3604 14.085V17.291C54.3649 17.9928 54.4629 18.5238 54.6543 18.8838V19H52.6582ZM51.0244 17.626C51.3161 17.626 51.585 17.5622 51.8311 17.4346C52.0771 17.3024 52.2594 17.127 52.3779 16.9082V15.6367H51.6396C50.6507 15.6367 50.1243 15.9785 50.0605 16.6621L50.0537 16.7783C50.0537 17.0244 50.1403 17.2272 50.3135 17.3867C50.4867 17.5462 50.7236 17.626 51.0244 17.626ZM57.9629 19H55.9805V8.5H57.9629V19ZM63.001 19.1367C61.9163 19.1367 61.0322 18.804 60.3486 18.1387C59.6696 17.4733 59.3301 16.5869 59.3301 15.4795V15.2881C59.3301 14.5452 59.4736 13.8822 59.7607 13.2988C60.0479 12.7109 60.4535 12.2598 60.9775 11.9453C61.5062 11.6263 62.1077 11.4668 62.7822 11.4668C63.7939 11.4668 64.5892 11.7858 65.168 12.4238C65.7513 13.0618 66.043 13.9665 66.043 15.1377V15.9443H61.333C61.3968 16.4274 61.5882 16.8148 61.9072 17.1064C62.2308 17.3981 62.6387 17.5439 63.1309 17.5439C63.8919 17.5439 64.4867 17.2682 64.915 16.7168L65.8857 17.8037C65.5895 18.223 65.1885 18.5511 64.6826 18.7881C64.1768 19.0205 63.6162 19.1367 63.001 19.1367ZM62.7754 13.0664C62.3835 13.0664 62.0645 13.1986 61.8184 13.4629C61.5768 13.7272 61.4219 14.1055 61.3535 14.5977H64.1016V14.4404C64.0924 14.0029 63.974 13.6657 63.7461 13.4287C63.5182 13.1872 63.1947 13.0664 62.7754 13.0664ZM75.1143 15.6846C75.0368 16.7555 74.6403 17.5986 73.9248 18.2139C73.2139 18.8291 72.2751 19.1367 71.1084 19.1367C69.8324 19.1367 68.8275 18.7083 68.0938 17.8516C67.3646 16.9902 67 15.8099 67 14.3105V13.7021C67 12.7451 67.1686 11.902 67.5059 11.1729C67.8431 10.4437 68.3239 9.88542 68.9482 9.49805C69.5771 9.10612 70.3063 8.91016 71.1357 8.91016C72.2842 8.91016 73.2093 9.21777 73.9111 9.83301C74.613 10.4482 75.0186 11.3118 75.1279 12.4238H73.0771C73.027 11.7812 72.847 11.3164 72.5371 11.0293C72.2318 10.7376 71.7646 10.5918 71.1357 10.5918C70.4521 10.5918 69.9395 10.8379 69.5977 11.3301C69.2604 11.8177 69.0872 12.5765 69.0781 13.6064V14.3584C69.0781 15.4339 69.2399 16.2201 69.5635 16.7168C69.8916 17.2135 70.4066 17.4619 71.1084 17.4619C71.7419 17.4619 72.2135 17.3184 72.5234 17.0312C72.8379 16.7396 73.0179 16.2907 73.0635 15.6846H75.1143ZM76.0234 15.2334C76.0234 14.4997 76.1647 13.8457 76.4473 13.2715C76.7298 12.6973 77.1354 12.2529 77.6641 11.9385C78.1973 11.624 78.8148 11.4668 79.5166 11.4668C80.5146 11.4668 81.3281 11.7721 81.957 12.3828C82.5905 12.9935 82.9437 13.8229 83.0166 14.8711L83.0303 15.377C83.0303 16.5117 82.7135 17.4232 82.0801 18.1113C81.4466 18.7949 80.5967 19.1367 79.5303 19.1367C78.4639 19.1367 77.6117 18.7949 76.9736 18.1113C76.3402 17.4277 76.0234 16.498 76.0234 15.3223V15.2334ZM77.999 15.377C77.999 16.0788 78.1312 16.6165 78.3955 16.9902C78.6598 17.3594 79.0381 17.5439 79.5303 17.5439C80.0088 17.5439 80.3825 17.3617 80.6514 16.9971C80.9202 16.6279 81.0547 16.04 81.0547 15.2334C81.0547 14.5452 80.9202 14.012 80.6514 13.6338C80.3825 13.2555 80.0042 13.0664 79.5166 13.0664C79.0335 13.0664 78.6598 13.2555 78.3955 13.6338C78.1312 14.0075 77.999 14.5885 77.999 15.377ZM86.332 19H84.3496V8.5H86.332V19ZM90.0508 19H88.0684V8.5H90.0508V19ZM95.0889 19.1367C94.0042 19.1367 93.1201 18.804 92.4365 18.1387C91.7575 17.4733 91.418 16.5869 91.418 15.4795V15.2881C91.418 14.5452 91.5615 13.8822 91.8486 13.2988C92.1357 12.7109 92.5413 12.2598 93.0654 11.9453C93.5941 11.6263 94.1956 11.4668 94.8701 11.4668C95.8818 11.4668 96.6771 11.7858 97.2559 12.4238C97.8392 13.0618 98.1309 13.9665 98.1309 15.1377V15.9443H93.4209C93.4847 16.4274 93.6761 16.8148 93.9951 17.1064C94.3187 17.3981 94.7266 17.5439 95.2188 17.5439C95.9798 17.5439 96.5745 17.2682 97.0029 16.7168L97.9736 17.8037C97.6774 18.223 97.2764 18.5511 96.7705 18.7881C96.2646 19.0205 95.7041 19.1367 95.0889 19.1367ZM94.8633 13.0664C94.4714 13.0664 94.1523 13.1986 93.9062 13.4629C93.6647 13.7272 93.5098 14.1055 93.4414 14.5977H96.1895V14.4404C96.1803 14.0029 96.0618 13.6657 95.834 13.4287C95.6061 13.1872 95.2826 13.0664 94.8633 13.0664ZM102.335 17.5439C102.7 17.5439 102.996 17.4437 103.224 17.2432C103.451 17.0426 103.57 16.776 103.579 16.4434H105.432C105.427 16.9447 105.29 17.4049 105.021 17.8242C104.753 18.2389 104.383 18.5625 103.914 18.7949C103.449 19.0228 102.934 19.1367 102.369 19.1367C101.312 19.1367 100.478 18.8018 99.8672 18.1318C99.2565 17.4574 98.9512 16.5277 98.9512 15.3428V15.2129C98.9512 14.0736 99.2542 13.1644 99.8604 12.4854C100.466 11.8063 101.298 11.4668 102.355 11.4668C103.281 11.4668 104.021 11.7311 104.577 12.2598C105.138 12.7839 105.423 13.4834 105.432 14.3584H103.579C103.57 13.9756 103.451 13.6657 103.224 13.4287C102.996 13.1872 102.695 13.0664 102.321 13.0664C101.861 13.0664 101.512 13.235 101.275 13.5723C101.043 13.9049 100.927 14.4473 100.927 15.1992V15.4043C100.927 16.1654 101.043 16.7122 101.275 17.0449C101.508 17.3776 101.861 17.5439 102.335 17.5439ZM108.925 9.78516V11.6035H110.189V13.0527H108.925V16.7441C108.925 17.0176 108.977 17.2135 109.082 17.332C109.187 17.4505 109.387 17.5098 109.684 17.5098C109.902 17.5098 110.096 17.4938 110.265 17.4619V18.959C109.877 19.0775 109.479 19.1367 109.068 19.1367C107.683 19.1367 106.977 18.4372 106.949 17.0381V13.0527H105.869V11.6035H106.949V9.78516H108.925Z" fill="black"/>
</svg>
